<svg width="240" height="240" viewBox="0 0 240 240" fill="none" xmlns="http://www.w3.org/2000/svg">
<g clip-path="url(#clip0_13969_15997)">
<path d="M240 183.551H0V183.671H240V183.551Z" fill="#EBEBEB"/>
<path d="M215.952 191.273H200.055V191.393H215.952V191.273Z" fill="#EBEBEB"/>
<path d="M158.988 192.578H154.816V192.698H158.988V192.578Z" fill="#EBEBEB"/>
<path d="M199.574 186.82H190.363V186.94H199.574V186.82Z" fill="#EBEBEB"/>
<path d="M45.9109 187.625H25.1797V187.745H45.9109V187.625Z" fill="#EBEBEB"/>
<path d="M53.2259 187.625H50.1875V187.745H53.2259V187.625Z" fill="#EBEBEB"/>
<path d="M108.072 189.652H63.1055V189.772H108.072V189.652Z" fill="#EBEBEB"/>
<path d="M113.759 162.142H21.0758C20.3498 162.141 19.6539 161.852 19.1409 161.338C18.6279 160.824 18.3398 160.128 18.3398 159.402V29.1152C18.3462 28.3933 18.6371 27.7031 19.1493 27.1944C19.6616 26.6857 20.3539 26.3997 21.0758 26.3984H113.759C114.486 26.3984 115.183 26.6872 115.697 27.2012C116.211 27.7152 116.5 28.4123 116.5 29.1392V159.402C116.5 160.129 116.211 160.826 115.697 161.34C115.183 161.854 114.486 162.142 113.759 162.142ZM21.0758 26.4944C20.3816 26.4957 19.7162 26.7724 19.2258 27.2637C18.7353 27.7551 18.4598 28.421 18.4598 29.1152V159.402C18.4598 160.096 18.7353 160.762 19.2258 161.253C19.7162 161.744 20.3816 162.021 21.0758 162.022H113.759C114.454 162.021 115.12 161.745 115.611 161.253C116.102 160.762 116.379 160.096 116.38 159.402V29.1152C116.379 28.4205 116.102 27.7547 115.611 27.2635C115.12 26.7722 114.454 26.4957 113.759 26.4944H21.0758Z" fill="#EBEBEB"/>
<path d="M217.589 162.142H124.901C124.174 162.141 123.478 161.852 122.964 161.338C122.451 160.825 122.161 160.128 122.16 159.402V29.1152C122.168 28.3929 122.46 27.7026 122.973 27.1941C123.486 26.6855 124.179 26.3997 124.901 26.3984H217.589C218.31 26.4009 219.001 26.6875 219.512 27.1961C220.024 27.7046 220.314 28.3942 220.32 29.1152V159.402C220.32 160.127 220.033 160.823 219.521 161.336C219.009 161.85 218.314 162.14 217.589 162.142ZM124.901 26.4944C124.206 26.4957 123.54 26.7722 123.049 27.2635C122.558 27.7547 122.281 28.4205 122.28 29.1152V159.402C122.281 160.096 122.558 160.762 123.049 161.253C123.54 161.745 124.206 162.021 124.901 162.022H217.589C218.284 162.021 218.95 161.745 219.441 161.253C219.932 160.762 220.208 160.096 220.21 159.402V29.1152C220.208 28.4205 219.932 27.7547 219.441 27.2635C218.95 26.7722 218.284 26.4957 217.589 26.4944H124.901Z" fill="#EBEBEB"/>
<path d="M139.049 83.5469L205.184 83.5469V40.2365L139.049 40.2365V83.5469Z" fill="#E6E6E6"/>
<path d="M137.029 83.5469L204.238 83.5469V40.2365L137.029 40.2365V83.5469Z" fill="#F0F0F0"/>
<path d="M139.049 92.043L205.184 92.043V83.5422L139.049 83.5422V92.043Z" fill="#E6E6E6"/>
<path d="M133.673 92.043L200.883 92.043V83.5422L133.673 83.5422V92.043Z" fill="#F0F0F0"/>
<path d="M201.418 80.7233V43.0625L139.858 43.0625V80.7233H201.418Z" fill="#FAFAFA"/>
<path d="M187.537 80.7185L179.675 43.0625H167.406L175.269 80.7185H187.537Z" fill="white"/>
<path d="M200.112 77.9105C200.139 77.9105 200.165 77.9051 200.19 77.8947C200.215 77.8843 200.237 77.869 200.256 77.8497C200.275 77.8305 200.29 77.8077 200.299 77.7827C200.309 77.7577 200.314 77.731 200.313 77.7041V44.9009C200.313 44.8474 200.292 44.7961 200.254 44.7583C200.217 44.7205 200.165 44.6993 200.112 44.6993C200.085 44.6986 200.059 44.7034 200.034 44.7133C200.009 44.7232 199.987 44.738 199.968 44.7569C199.949 44.7757 199.934 44.7982 199.924 44.823C199.914 44.8477 199.91 44.8742 199.91 44.9009V77.7041C199.91 77.731 199.914 77.7577 199.924 77.7827C199.934 77.8077 199.949 77.8305 199.968 77.8497C199.986 77.869 200.009 77.8843 200.034 77.8947C200.058 77.9051 200.085 77.9105 200.112 77.9105Z" fill="#F0F0F0"/>
<path d="M172.632 80.7185L164.77 43.0625H159.984L167.852 80.7185H172.632Z" fill="white"/>
<path d="M140.219 80.7233V43.0625H139.859V80.7233H140.219Z" fill="#E6E6E6"/>
<path opacity="0.6" d="M136.367 47.3234H202.502L202.761 44.1602H136.626L136.367 47.3234Z" fill="#EBEBEB"/>
<path opacity="0.6" d="M136.367 52.5061H202.502L202.761 49.3477H136.626L136.367 52.5061Z" fill="#EBEBEB"/>
<path opacity="0.6" d="M136.367 57.6897H202.502L202.761 54.5312H136.626L136.367 57.6897Z" fill="#EBEBEB"/>
<path opacity="0.6" d="M136.367 62.878H202.502L202.761 59.7148H136.626L136.367 62.878Z" fill="#EBEBEB"/>
<path opacity="0.6" d="M136.367 68.0616H202.502L202.761 64.8984H136.626L136.367 68.0616Z" fill="#EBEBEB"/>
<path opacity="0.6" d="M136.367 73.2452H202.502L202.761 70.082H136.626L136.367 73.2452Z" fill="#EBEBEB"/>
<path d="M195.691 152.055H181.824V154.791H195.691V152.055Z" fill="#E6E6E6"/>
<path d="M155.668 183.551H158.227V120.637H155.668V183.551Z" fill="#E6E6E6"/>
<path d="M146.8 154.789H181.82V152.053H146.8V154.789Z" fill="#F5F5F5"/>
<path d="M195.691 167.016H181.824V169.752H195.691V167.016Z" fill="#E6E6E6"/>
<path d="M146.8 169.746H181.82V167.01H146.8V169.746Z" fill="#F5F5F5"/>
<path d="M195.691 122.133H181.824V124.869H195.691V122.133Z" fill="#E6E6E6"/>
<path d="M146.8 124.867H181.82V122.131H146.8V124.867Z" fill="#F5F5F5"/>
<path d="M195.691 137.09H181.824V139.826H195.691V137.09Z" fill="#E6E6E6"/>
<path d="M146.8 139.828H181.82V137.092H146.8V139.828Z" fill="#F5F5F5"/>
<path d="M190.695 183.551H193.254V120.637H190.695V183.551Z" fill="#E6E6E6"/>
<path d="M179.262 183.551H181.82V120.637H179.262V183.551Z" fill="#F5F5F5"/>
<path d="M146.797 183.551H149.355V120.637H146.797V183.551Z" fill="#F5F5F5"/>
<path d="M31.3836 183.551H57.582L57.582 132.724H31.3836L31.3836 183.551Z" fill="#E6E6E6"/>
<path d="M38.3773 183.549H31.3789V176.531H45.7117L38.3773 183.549Z" fill="#FAFAFA"/>
<path d="M102.805 183.551H129.004V132.724H102.805V183.551Z" fill="#E6E6E6"/>
<path d="M31.3836 181.133H108.918V132.72H31.3836V181.133Z" fill="#FAFAFA"/>
<path d="M101.916 183.549H108.91V176.531H94.582L101.916 183.549Z" fill="#FAFAFA"/>
<path d="M36.8067 162.875H103.488V150.76H36.8067V162.875Z" fill="#F0F0F0"/>
<path d="M36.8067 177.578H103.488V165.463H36.8067V177.578Z" fill="#F0F0F0"/>
<path d="M90.8142 152.059H49.4814C48.8984 152.059 48.3392 151.827 47.9269 151.415C47.5146 151.002 47.283 150.443 47.283 149.86V149.711H93.0078V149.86C93.0078 150.442 92.7769 151.001 92.3656 151.413C91.9544 151.825 91.3964 152.057 90.8142 152.059Z" fill="#FAFAFA"/>
<path d="M36.8067 148.168H103.488V136.053H36.8067V148.168Z" fill="#F0F0F0"/>
<path d="M90.8142 137.352H49.4814C48.8984 137.352 48.3392 137.12 47.9269 136.708C47.5146 136.295 47.283 135.736 47.283 135.153V135.004H93.0078V135.153C93.0078 135.735 92.7769 136.294 92.3656 136.706C91.9544 137.118 91.3964 137.35 90.8142 137.352Z" fill="#FAFAFA"/>
<path d="M90.8142 166.766H49.4814C48.8984 166.766 48.3392 166.534 47.9269 166.122C47.5146 165.709 47.283 165.15 47.283 164.567V164.418H93.0078V164.567C93.0078 165.149 92.7769 165.708 92.3656 166.12C91.9544 166.532 91.3964 166.764 90.8142 166.766Z" fill="#FAFAFA"/>
<path d="M35.5531 83.5469L101.688 83.5469V40.2365L35.5531 40.2365V83.5469Z" fill="#E6E6E6"/>
<path d="M33.5365 83.5469L100.746 83.5469V40.2365L33.5365 40.2365V83.5469Z" fill="#F0F0F0"/>
<path d="M35.5531 92.043L101.688 92.043V83.5422L35.5531 83.5422V92.043Z" fill="#E6E6E6"/>
<path d="M30.1732 92.043L97.3828 92.043V83.5422L30.1732 83.5422V92.043Z" fill="#F0F0F0"/>
<path d="M97.9219 80.7233V43.0625L36.3619 43.0625V80.7233H97.9219Z" fill="#FAFAFA"/>
<path d="M84.0375 80.7185L76.175 43.0625H63.9062L71.7687 80.7185H84.0375Z" fill="white"/>
<path d="M96.6079 77.9105C96.6348 77.9105 96.6614 77.9051 96.6862 77.8947C96.711 77.8843 96.7334 77.869 96.7522 77.8497C96.771 77.8305 96.7857 77.8077 96.7956 77.7827C96.8054 77.7577 96.8101 77.731 96.8095 77.7041V44.9009C96.8102 44.8742 96.8054 44.8477 96.7955 44.823C96.7856 44.7982 96.7708 44.7757 96.7519 44.7569C96.7331 44.738 96.7106 44.7232 96.6858 44.7133C96.6611 44.7034 96.6346 44.6986 96.6079 44.6993C96.5544 44.6993 96.5032 44.7205 96.4654 44.7583C96.4275 44.7961 96.4063 44.8474 96.4063 44.9009V77.7041C96.4057 77.731 96.4104 77.7577 96.4203 77.7827C96.4301 77.8077 96.4448 77.8305 96.4636 77.8497C96.4824 77.869 96.5049 77.8843 96.5296 77.8947C96.5544 77.9051 96.581 77.9105 96.6079 77.9105Z" fill="#F0F0F0"/>
<path d="M69.1324 80.7185L61.27 43.0625H56.4844L64.3468 80.7185H69.1324Z" fill="white"/>
<path d="M36.7188 80.7233V43.0625H36.3587V80.7233H36.7188Z" fill="#E6E6E6"/>
<path opacity="0.6" d="M32.8672 47.3234H99.0016L99.2608 44.1602H33.1264L32.8672 47.3234Z" fill="#EBEBEB"/>
<path opacity="0.6" d="M32.8672 49.1085H99.0016L99.2608 45.9453H33.1264L32.8672 49.1085Z" fill="#EBEBEB"/>
<path opacity="0.6" d="M32.8672 50.8889H99.0016L99.2608 47.7305H33.1264L32.8672 50.8889Z" fill="#EBEBEB"/>
<path opacity="0.6" d="M32.8672 52.6749H99.0016L99.2608 49.5117H33.1264L32.8672 52.6749Z" fill="#EBEBEB"/>
<path opacity="0.6" d="M32.8672 54.4553H99.0016L99.2608 51.2969H33.1264L32.8672 54.4553Z" fill="#EBEBEB"/>
<path opacity="0.6" d="M32.8672 56.2413H99.0016L99.2608 53.0781H33.1264L32.8672 56.2413Z" fill="#EBEBEB"/>
<path d="M46.0902 131.168H48.375V105.685H46.0902V131.168Z" fill="#F5F5F5"/>
<path d="M46.3793 131.152H47.0273V105.669H46.3793V131.152Z" fill="#FAFAFA"/>
<path d="M47.2925 131.152H47.5469V105.669H47.2925V131.152Z" fill="#FAFAFA"/>
<path d="M55.6953 132.723H38.7801C38.7801 132.157 39.0047 131.615 39.4043 131.216C39.804 130.816 40.3461 130.591 40.9113 130.591H53.5593C54.1245 130.591 54.6666 130.816 55.0663 131.216C55.466 131.615 55.6905 132.157 55.6905 132.723H55.6953Z" fill="#F0F0F0"/>
<path d="M43.1233 121.505C43.2974 121.504 43.4639 121.434 43.5869 121.311C43.71 121.188 43.7797 121.021 43.7809 120.847V104.158C43.7809 103.983 43.7117 103.816 43.5883 103.693C43.465 103.569 43.2977 103.5 43.1233 103.5C43.0366 103.499 42.9505 103.516 42.8702 103.549C42.7899 103.581 42.7168 103.63 42.6552 103.691C42.5937 103.752 42.5448 103.825 42.5114 103.905C42.4781 103.985 42.4609 104.071 42.4609 104.158V120.866C42.4672 121.038 42.5397 121.2 42.6632 121.319C42.7868 121.438 42.9517 121.505 43.1233 121.505Z" fill="#F0F0F0"/>
<path d="M36.9922 111.742H57.4642L55.1074 97.4375H39.349L36.9922 111.742Z" fill="#E0E0E0"/>
<path d="M120.001 205.23C171.4 205.23 213.068 202.798 213.068 199.797C213.068 196.796 171.4 194.363 120.001 194.363C68.6012 194.363 26.9336 196.796 26.9336 199.797C26.9336 202.798 68.6012 205.23 120.001 205.23Z" fill="#F5F5F5"/>
<path d="M49.9788 97.1296L49.5 97.1641L50.1376 106.016L50.6164 105.982L49.9788 97.1296Z" fill="#162680"/>
<path d="M50.9397 110.551L50.4609 110.586L50.701 113.918L51.1797 113.884L50.9397 110.551Z" fill="#162680"/>
<path d="M162.103 151.275H59.3063C58.162 151.255 57.0659 150.811 56.2292 150.03C55.3925 149.249 54.8745 148.187 54.7751 147.046L49.7255 76.904C49.6785 76.363 49.7454 75.8182 49.9218 75.3047C50.0982 74.7912 50.3802 74.3203 50.7496 73.9223C51.119 73.5244 51.5677 73.2083 52.0668 72.9943C52.5658 72.7803 53.1042 72.6733 53.6471 72.68H156.444C157.587 72.7004 158.683 73.1432 159.52 73.9231C160.356 74.7029 160.875 75.7647 160.975 76.904L166.025 147.046C166.072 147.588 166.005 148.133 165.828 148.646C165.652 149.16 165.37 149.631 165.001 150.03C164.631 150.428 164.183 150.744 163.684 150.959C163.185 151.174 162.646 151.281 162.103 151.275Z" fill="#162680"/>
<path d="M162.498 151.275H59.7008C58.5566 151.255 57.4604 150.811 56.6238 150.03C55.7871 149.249 55.2691 148.187 55.1696 147.046L50.12 76.904C50.0731 76.363 50.1399 75.8182 50.3163 75.3047C50.4927 74.7912 50.7747 74.3203 51.1441 73.9223C51.5136 73.5244 51.9623 73.2083 52.4613 72.9943C52.9604 72.7803 53.4987 72.6733 54.0416 72.68H156.838C157.982 72.7004 159.077 73.1432 159.914 73.9231C160.751 74.7029 161.269 75.7647 161.37 76.904L166.419 147.046C166.467 147.588 166.401 148.133 166.225 148.647C166.048 149.161 165.767 149.633 165.397 150.031C165.028 150.43 164.579 150.746 164.079 150.961C163.58 151.175 163.041 151.282 162.498 151.275Z" fill="#162680"/>
<path opacity="0.5" d="M162.498 151.275H59.7008C58.5566 151.255 57.4604 150.811 56.6238 150.03C55.7871 149.249 55.2691 148.187 55.1696 147.046L50.12 76.904C50.0731 76.363 50.1399 75.8182 50.3163 75.3047C50.4927 74.7912 50.7747 74.3203 51.1441 73.9223C51.5136 73.5244 51.9623 73.2083 52.4613 72.9943C52.9604 72.7803 53.4987 72.6733 54.0416 72.68H156.838C157.982 72.7004 159.077 73.1432 159.914 73.9231C160.751 74.7029 161.269 75.7647 161.37 76.904L166.419 147.046C166.467 147.588 166.401 148.133 166.225 148.647C166.048 149.161 165.767 149.633 165.397 150.031C165.028 150.43 164.579 150.746 164.079 150.961C163.58 151.175 163.041 151.282 162.498 151.275Z" fill="white"/>
<path d="M156.99 74.793H54.1932H53.8476C51.222 75.009 51.7596 79.0074 54.4092 79.0074H157.379C160.033 79.0074 159.995 75.009 157.336 74.793H156.99Z" fill="#162680"/>
<path d="M56.8718 76.9054C56.8819 77.0291 56.8659 77.1536 56.8249 77.2708C56.7839 77.388 56.7188 77.4953 56.6338 77.5858C56.5487 77.6762 56.4457 77.7479 56.3312 77.796C56.2168 77.8442 56.0935 77.8678 55.9694 77.8654C55.7085 77.8617 55.4582 77.7616 55.2668 77.5844C55.0754 77.4071 54.9563 77.1652 54.9326 76.9054C54.9226 76.7821 54.9384 76.658 54.9791 76.5411C55.0198 76.4243 55.0845 76.3172 55.169 76.2268C55.2536 76.1364 55.356 76.0647 55.4699 76.0163C55.5838 75.9678 55.7065 75.9437 55.8302 75.9454C56.0919 75.9479 56.3434 76.0475 56.5359 76.2248C56.7283 76.4022 56.848 76.6448 56.8718 76.9054Z" fill="#FAFAFA"/>
<path d="M60.1687 76.9054C60.1788 77.0291 60.1628 77.1536 60.1218 77.2708C60.0808 77.388 60.0157 77.4953 59.9307 77.5858C59.8456 77.6762 59.7426 77.7479 59.6281 77.796C59.5137 77.8442 59.3904 77.8678 59.2663 77.8654C59.0054 77.8617 58.7551 77.7616 58.5637 77.5844C58.3722 77.4071 58.2532 77.1652 58.2295 76.9054C58.2194 76.7821 58.2353 76.658 58.276 76.5411C58.3167 76.4243 58.3814 76.3172 58.4659 76.2268C58.5504 76.1364 58.6529 76.0647 58.7668 76.0163C58.8806 75.9678 59.0034 75.9437 59.1271 75.9454C59.3888 75.9479 59.6403 76.0475 59.8327 76.2248C60.0252 76.4022 60.1449 76.6448 60.1687 76.9054Z" fill="#FAFAFA"/>
<path d="M63.4612 76.9055C63.4713 77.0288 63.4554 77.1529 63.4147 77.2698C63.374 77.3866 63.3093 77.4937 63.2248 77.5841C63.1403 77.6744 63.0378 77.7462 62.9239 77.7946C62.8101 77.8431 62.6873 77.8672 62.5636 77.8655C62.3024 77.8629 62.0515 77.7631 61.8599 77.5857C61.6682 77.4082 61.5494 77.1657 61.5268 76.9055C61.516 76.782 61.5313 76.6576 61.5717 76.5404C61.6122 76.4232 61.6768 76.3159 61.7615 76.2253C61.8462 76.1348 61.949 76.063 62.0632 76.0148C62.1774 75.9666 62.3005 75.943 62.4244 75.9455C62.6853 75.9492 62.9356 76.0493 63.127 76.2265C63.3185 76.4038 63.4375 76.6457 63.4612 76.9055Z" fill="#FAFAFA"/>
<path d="M159.768 144.277H61.4403C61.0249 144.27 60.6269 144.109 60.3236 143.825C60.0202 143.541 59.8332 143.155 59.7987 142.741L55.6467 85.0593C55.6282 84.8613 55.652 84.6617 55.7166 84.4737C55.7812 84.2857 55.885 84.1135 56.0212 83.9687C56.1574 83.8239 56.3228 83.7097 56.5065 83.6338C56.6902 83.5578 56.888 83.5217 57.0867 83.528H155.439C155.854 83.5338 156.252 83.6937 156.555 83.9768C156.859 84.2598 157.046 84.6457 157.08 85.0593L161.237 142.741C161.255 142.941 161.23 143.143 161.163 143.333C161.097 143.523 160.991 143.697 160.851 143.842C160.712 143.988 160.544 144.102 160.357 144.177C160.17 144.252 159.969 144.286 159.768 144.277Z" fill="white"/>
<path d="M118.335 122.304L116.732 100.071L111.884 97.1523H98.5352L100.35 122.304H118.335Z" fill="white"/>
<path d="M118.336 122.532H100.35C100.291 122.533 100.233 122.511 100.189 122.471C100.145 122.431 100.119 122.375 100.115 122.316L98.3053 97.1637C98.303 97.1321 98.3073 97.1004 98.3181 97.0706C98.3288 97.0408 98.3457 97.0137 98.3677 96.9909C98.3889 96.9672 98.4147 96.9481 98.4436 96.9349C98.4726 96.9217 98.5039 96.9146 98.5357 96.9141H111.884C111.927 96.9155 111.968 96.927 112.004 96.9477L116.852 99.8661C116.885 99.8848 116.913 99.9111 116.933 99.9429C116.953 99.9747 116.965 100.011 116.968 100.048L118.561 122.282C118.565 122.314 118.561 122.347 118.55 122.378C118.539 122.409 118.522 122.436 118.499 122.46C118.478 122.482 118.453 122.5 118.425 122.512C118.397 122.525 118.366 122.531 118.336 122.532ZM100.576 122.052H118.081L116.507 100.188L111.841 97.3797H98.7853L100.576 122.052Z" fill="#162680"/>
<path d="M116.735 100.071L111.887 97.1523L113.668 101.021L116.735 100.071Z" fill="#EBEBEB"/>
<path d="M113.666 101.248C113.622 101.248 113.578 101.235 113.541 101.212C113.504 101.188 113.474 101.154 113.455 101.114L111.674 97.2452C111.653 97.1998 111.647 97.149 111.657 97.1C111.666 97.051 111.691 97.0061 111.727 96.9716C111.765 96.9391 111.812 96.9193 111.862 96.9149C111.912 96.9106 111.962 96.9221 112.005 96.9476L116.853 99.866C116.892 99.8895 116.924 99.9237 116.944 99.9645C116.965 100.005 116.973 100.051 116.968 100.096C116.962 100.141 116.944 100.182 116.915 100.216C116.886 100.25 116.848 100.275 116.805 100.288L113.733 101.248H113.666ZM112.413 97.7348L113.791 100.735L116.191 100L112.413 97.7348Z" fill="#162680"/>
<path d="M106.08 108.479C106.087 108.61 106.068 108.74 106.023 108.863C105.978 108.985 105.908 109.098 105.818 109.192C105.728 109.287 105.62 109.363 105.5 109.414C105.38 109.466 105.251 109.492 105.12 109.492C104.846 109.487 104.584 109.381 104.383 109.194C104.183 109.007 104.059 108.752 104.035 108.479C104.023 108.347 104.039 108.214 104.082 108.089C104.125 107.964 104.194 107.849 104.285 107.753C104.376 107.657 104.486 107.581 104.609 107.531C104.731 107.48 104.863 107.457 104.995 107.462C105.27 107.468 105.532 107.575 105.733 107.763C105.933 107.95 106.057 108.206 106.08 108.479Z" fill="#162680"/>
<path d="M112.657 108.479C112.668 108.61 112.652 108.742 112.609 108.867C112.565 108.992 112.496 109.106 112.405 109.201C112.314 109.297 112.204 109.372 112.082 109.422C111.96 109.472 111.829 109.496 111.697 109.491C111.422 109.487 111.159 109.38 110.958 109.194C110.757 109.007 110.632 108.752 110.607 108.479C110.599 108.348 110.618 108.217 110.663 108.093C110.708 107.97 110.777 107.857 110.867 107.762C110.957 107.667 111.066 107.591 111.186 107.539C111.306 107.487 111.436 107.461 111.567 107.461C111.843 107.465 112.107 107.571 112.309 107.759C112.51 107.947 112.634 108.204 112.657 108.479Z" fill="#162680"/>
<path d="M114.521 115.074C114.462 115.073 114.406 115.05 114.364 115.01C114.321 114.97 114.295 114.916 114.29 114.858C114.17 113.221 111.607 111.891 108.578 111.891C106.567 111.891 104.762 112.491 103.869 113.451C103.686 113.628 103.542 113.842 103.448 114.079C103.354 114.316 103.311 114.57 103.322 114.824C103.324 114.856 103.32 114.887 103.31 114.917C103.3 114.947 103.284 114.975 103.264 114.999C103.222 115.047 103.163 115.077 103.099 115.081C103.035 115.085 102.972 115.064 102.924 115.023C102.876 114.981 102.847 114.921 102.842 114.858C102.828 114.54 102.88 114.222 102.996 113.925C103.112 113.628 103.288 113.359 103.514 113.135C104.474 112.083 106.428 111.426 108.564 111.426C111.89 111.426 114.602 112.919 114.737 114.824C114.738 114.854 114.734 114.885 114.725 114.914C114.715 114.942 114.699 114.969 114.679 114.991C114.659 115.014 114.635 115.033 114.608 115.046C114.58 115.059 114.551 115.067 114.521 115.069V115.074Z" fill="#162680"/>
<path d="M102.324 106.426C102.266 106.425 102.209 106.403 102.166 106.363C102.122 106.319 102.098 106.26 102.098 106.198C102.098 106.136 102.122 106.076 102.166 106.032L103.188 104.933C103.232 104.891 103.291 104.867 103.351 104.867C103.412 104.867 103.471 104.891 103.515 104.933C103.536 104.954 103.553 104.98 103.565 105.008C103.576 105.036 103.582 105.066 103.582 105.096C103.582 105.127 103.576 105.157 103.565 105.185C103.553 105.213 103.536 105.238 103.515 105.259L102.492 106.359C102.47 106.381 102.444 106.398 102.415 106.409C102.386 106.421 102.355 106.427 102.324 106.426Z" fill="#162680"/>
<path d="M114.041 106.426C113.983 106.423 113.927 106.401 113.883 106.363L112.707 105.264C112.685 105.243 112.667 105.217 112.655 105.189C112.643 105.16 112.637 105.13 112.637 105.099C112.637 105.068 112.643 105.037 112.655 105.009C112.667 104.98 112.685 104.955 112.707 104.933C112.751 104.891 112.809 104.867 112.87 104.867C112.931 104.867 112.989 104.891 113.033 104.933L114.209 106.032C114.231 106.054 114.248 106.079 114.259 106.107C114.271 106.135 114.277 106.165 114.277 106.195C114.277 106.226 114.271 106.256 114.259 106.284C114.248 106.312 114.231 106.337 114.209 106.359C114.164 106.401 114.104 106.425 114.041 106.426Z" fill="#162680"/>
<path d="M103.363 129.285C103.34 129.285 103.329 129.274 103.329 129.251V128.847C103.329 128.827 103.34 128.817 103.363 128.817H104.085L104.031 128.878C103.998 128.745 103.958 128.613 103.912 128.483C103.869 128.349 103.82 128.211 103.766 128.068L104.108 127.891L104.404 128.387L104.296 128.521C104.299 128.772 104.278 129.027 104.235 129.285H103.363ZM102.872 129.285C102.634 129.285 102.451 129.233 102.323 129.128C102.195 129.023 102.123 128.867 102.108 128.659C102.148 128.534 102.182 128.435 102.207 128.364C102.233 128.292 102.271 128.197 102.323 128.079L102.426 128.118C102.411 128.174 102.398 128.228 102.388 128.279C102.38 128.328 102.376 128.371 102.376 128.41C102.376 128.556 102.424 128.661 102.518 128.725C102.616 128.786 102.772 128.817 102.987 128.817H103.363C103.386 128.817 103.398 128.827 103.398 128.847V129.251C103.398 129.274 103.386 129.285 103.363 129.285H102.872ZM103.448 128.06L103.133 127.768L103.44 127.45L103.736 127.734L103.448 128.06ZM102.941 128.06L102.626 127.768L102.933 127.446L103.229 127.734L102.941 128.06ZM104.767 129.285C104.767 129.257 104.766 129.229 104.763 129.201C104.761 129.173 104.758 129.143 104.756 129.112C104.725 128.693 104.697 128.332 104.671 128.029C104.646 127.727 104.61 127.423 104.564 127.116L105.04 126.943C105.06 127.242 105.077 127.562 105.09 127.903C105.105 128.243 105.114 128.559 105.117 128.851L105.044 128.817H105.451C105.474 128.817 105.485 128.827 105.485 128.847V129.251C105.485 129.274 105.474 129.285 105.451 129.285H104.767ZM105.454 129.285C105.431 129.285 105.419 129.274 105.419 129.251V128.847C105.419 128.827 105.431 128.817 105.454 128.817H105.999L105.949 128.878C105.913 128.745 105.874 128.613 105.83 128.483C105.787 128.352 105.737 128.215 105.68 128.072L106.026 127.891L106.318 128.387L106.214 128.521C106.217 128.772 106.196 129.027 106.153 129.285H105.454ZM105.803 127.692L105.488 127.4L105.796 127.077L106.091 127.365L105.803 127.692ZM106.683 129.285C106.683 129.257 106.682 129.229 106.68 129.201C106.677 129.173 106.674 129.143 106.672 129.112C106.641 128.693 106.613 128.332 106.587 128.029C106.562 127.727 106.526 127.423 106.48 127.116L106.956 126.943C106.977 127.242 106.993 127.562 107.006 127.903C107.021 128.243 107.03 128.559 107.033 128.851L106.96 128.817H107.367C107.39 128.817 107.402 128.827 107.402 128.847V129.251C107.402 129.274 107.39 129.285 107.367 129.285H106.683ZM107.37 129.285C107.347 129.285 107.335 129.274 107.335 129.251V128.847C107.335 128.827 107.347 128.817 107.37 128.817C107.472 128.817 107.571 128.812 107.666 128.801C107.76 128.791 107.826 128.777 107.862 128.759L107.792 128.84C107.8 128.742 107.806 128.644 107.812 128.544C107.819 128.444 107.826 128.337 107.831 128.221L108.311 128.145C108.298 128.247 108.284 128.334 108.269 128.406C108.246 128.513 108.222 128.616 108.199 128.713C108.176 128.808 108.156 128.877 108.138 128.92C108.082 129.053 107.997 129.148 107.885 129.205C107.774 129.258 107.603 129.285 107.37 129.285ZM108.626 129.285C108.567 129.285 108.508 129.281 108.449 129.274C108.39 129.263 108.339 129.252 108.295 129.239L108.034 128.817L108.05 128.744C108.116 128.767 108.196 128.785 108.288 128.797C108.38 128.81 108.493 128.817 108.626 128.817C108.649 128.817 108.66 128.827 108.66 128.847V129.251C108.66 129.274 108.649 129.285 108.626 129.285ZM108.276 130.149L107.961 129.857L108.269 129.539L108.564 129.823L108.276 130.149ZM107.769 130.149L107.454 129.857L107.762 129.539L108.057 129.823L107.769 130.149ZM108.626 129.285C108.603 129.285 108.592 129.274 108.592 129.251V128.847C108.592 128.827 108.603 128.817 108.626 128.817H109.172L109.122 128.878C109.086 128.745 109.046 128.613 109.003 128.483C108.959 128.352 108.909 128.215 108.853 128.072L109.198 127.891L109.49 128.387L109.387 128.521C109.389 128.772 109.369 129.027 109.325 129.285H108.626ZM109.052 130.145L108.738 129.853L109.045 129.531L109.34 129.819L109.052 130.145ZM111.592 129.285C111.503 129.285 111.421 129.257 111.346 129.201C111.272 129.144 111.199 129.059 111.128 128.943C111.061 128.838 110.997 128.7 110.936 128.529C110.877 128.357 110.827 128.173 110.786 127.976L111.174 127.814C111.186 127.968 111.206 128.108 111.231 128.233C111.259 128.356 111.294 128.466 111.335 128.563C111.368 128.648 111.404 128.712 111.442 128.755C111.483 128.796 111.533 128.817 111.592 128.817C111.615 128.817 111.627 128.827 111.627 128.847V129.251C111.627 129.274 111.615 129.285 111.592 129.285ZM110.755 129.324C110.666 129.324 110.572 129.316 110.475 129.301C110.378 129.288 110.292 129.27 110.218 129.247L110.294 128.801C110.445 128.837 110.599 128.855 110.755 128.855C110.937 128.855 111.112 128.836 111.281 128.797L111.154 129.293C111.111 129.303 111.052 129.311 110.978 129.316C110.904 129.321 110.829 129.324 110.755 129.324ZM113.274 128.959C113.113 128.91 112.977 128.849 112.867 128.774C112.757 128.698 112.646 128.605 112.533 128.498C112.444 128.413 112.372 128.355 112.318 128.321C112.264 128.285 112.203 128.268 112.134 128.268C112.032 128.268 111.936 128.289 111.846 128.333L111.796 128.248L112.23 127.811C112.304 127.816 112.375 127.843 112.441 127.891C112.508 127.937 112.6 128.014 112.718 128.122C112.846 128.242 112.961 128.338 113.063 128.41C113.166 128.481 113.281 128.534 113.409 128.567L113.274 128.959ZM112.072 129.285C112.049 129.285 112.038 129.274 112.038 129.251V128.847C112.038 128.827 112.049 128.817 112.072 128.817H112.238C112.35 128.817 112.451 128.813 112.541 128.805C112.633 128.795 112.723 128.781 112.81 128.763C112.858 128.753 112.907 128.745 112.956 128.74C113.004 128.732 113.054 128.727 113.105 128.725L113.186 128.874C113.117 128.877 113.053 128.893 112.994 128.924C112.938 128.952 112.867 128.997 112.783 129.059C112.688 129.13 112.601 129.187 112.522 129.228C112.445 129.266 112.355 129.285 112.253 129.285H112.072ZM111.846 128.333V128.252L112.368 128.225L112.372 128.31L111.846 128.333ZM111.592 129.285C111.569 129.285 111.558 129.274 111.558 129.251V128.847C111.558 128.827 111.569 128.817 111.592 128.817H112.072C112.096 128.817 112.107 128.827 112.107 128.847V129.251C112.107 129.274 112.096 129.285 112.072 129.285H111.592ZM112.453 130.145L112.138 129.853L112.445 129.531L112.741 129.819L112.453 130.145ZM114.171 130.015L113.496 129.838L113.499 129.769C113.594 129.736 113.667 129.711 113.718 129.696C113.736 129.691 113.755 129.683 113.776 129.673C113.796 129.665 113.816 129.658 113.834 129.65C113.995 129.576 114.131 129.498 114.241 129.416C114.351 129.336 114.426 129.252 114.467 129.162C114.462 129.129 114.456 129.088 114.448 129.039C114.415 128.832 114.371 128.666 114.317 128.54C114.266 128.412 114.195 128.348 114.102 128.348C114.067 128.348 114.031 128.365 113.995 128.398C113.962 128.429 113.932 128.471 113.907 128.525C113.881 128.579 113.863 128.635 113.853 128.694L113.818 128.613C113.885 128.675 113.968 128.721 114.068 128.751C114.168 128.78 114.307 128.804 114.486 128.824C114.504 128.827 114.522 128.829 114.54 128.832C114.558 128.832 114.576 128.833 114.594 128.836L114.598 128.817H114.951C114.974 128.817 114.986 128.827 114.986 128.847V129.251C114.986 129.274 114.974 129.285 114.951 129.285H114.705C114.47 129.285 114.27 129.265 114.106 129.224C113.942 129.183 113.817 129.121 113.73 129.039C113.645 128.955 113.603 128.85 113.603 128.725C113.603 128.614 113.63 128.497 113.684 128.371C113.738 128.246 113.808 128.141 113.895 128.056C113.985 127.972 114.077 127.93 114.171 127.93C114.287 127.93 114.387 127.972 114.471 128.056C114.558 128.138 114.623 128.25 114.667 128.39C114.71 128.529 114.732 128.681 114.732 128.847C114.732 129.001 114.712 129.147 114.671 129.285C114.632 129.421 114.571 129.549 114.486 129.669C114.404 129.792 114.299 129.907 114.171 130.015ZM114.952 129.285C114.929 129.285 114.918 129.274 114.918 129.251V128.847C114.918 128.827 114.929 128.817 114.952 128.817H115.674L115.621 128.878C115.587 128.745 115.548 128.613 115.502 128.483C115.458 128.349 115.409 128.211 115.356 128.068L115.697 127.891L115.993 128.387L115.886 128.521C115.888 128.772 115.868 129.027 115.824 129.285H114.952ZM115.72 130.149L115.406 129.857L115.713 129.539L116.008 129.823L115.72 130.149ZM115.214 130.149L114.899 129.857L115.206 129.539L115.502 129.823L115.214 130.149ZM116.893 129.285L116.835 129.231L116.916 128.74C117.062 128.635 117.188 128.538 117.296 128.448C117.406 128.356 117.503 128.27 117.588 128.191L117.726 128.122C117.813 128.017 117.871 127.903 117.899 127.78C117.93 127.654 117.933 127.512 117.91 127.354C117.88 127.19 117.84 127.008 117.791 126.808L118.122 126.643L118.402 127.142L118.298 127.277C118.301 127.292 118.302 127.309 118.302 127.327C118.302 127.342 118.303 127.357 118.306 127.373C118.306 127.388 118.306 127.405 118.306 127.423C118.308 127.438 118.31 127.455 118.31 127.473C118.315 127.619 118.284 127.77 118.218 127.926C118.154 128.082 118.056 128.216 117.926 128.329L117.768 128.387C117.584 128.556 117.382 128.725 117.162 128.893L117.158 128.851L118.187 128.817L118.175 128.859C118.001 128.672 117.835 128.503 117.676 128.352C117.517 128.201 117.34 128.04 117.142 127.868L116.993 127.849L116.732 127.538L116.897 127.169L116.973 127.146C117.35 127.52 117.665 127.845 117.918 128.122C118.172 128.398 118.364 128.63 118.494 128.817L118.298 129.285H116.893Z" fill="#162680"/>
</g>
<defs>
<clipPath id="clip0_13969_15997">
<rect width="240" height="240" fill="white"/>
</clipPath>
</defs>
</svg>
